<svg t="1566956182826" class="icon" viewBox="0 0 1024 1024" version="1.1" xmlns="http://www.w3.org/2000/svg" p-id="5171" width="128" height="128"><path d="M515.4 908.5H18.7C8.4 908.5 0 900.1 0 889.9V257.7c0-10.3 8.3-18.6 18.6-18.6h469.5c10.3 0 18.6 8.3 18.6 18.6s-8.3 18.6-18.6 18.6H37.3v594.9h478.1c10.3 0 18.6 8.3 18.6 18.6s-8.4 18.7-18.6 18.7zM1004.9 908.5H782.6c-10.3 0-18.6-8.3-18.6-18.6s8.3-18.6 18.6-18.6h203.6v-595H812.6c-10.3 0-18.6-8.3-18.6-18.6s8.3-18.6 18.6-18.6h192.3c10.3 0 18.6 8.3 18.6 18.6v632.2c0 10.2-8.4 18.6-18.6 18.6z" fill="#22cdf1" p-id="5172"></path><path d="M384.6 257.7h-37.2v-62.3c0-11.6-7.5-21.4-16.3-21.4H128c-8.8 0-16.3 9.8-16.3 21.4v62.3H74.5v-62.3c0-32.3 24-58.7 53.5-58.7h203.1c29.5 0 53.5 26.3 53.5 58.7v62.3zM285.4 370.4H142.7c-13.7 0-24.8-11.1-24.8-24.8 0-13.7 11.1-24.8 24.8-24.8h142.7c13.7 0 24.8 11.1 24.8 24.8 0 13.7-11.1 24.8-24.8 24.8zM645.1 933.6c-201.8 0-366-164.2-366-366s164.2-366 366-366 366 164.2 366 366-164.2 366-366 366z m0-694.7c-181.3 0-328.7 147.5-328.7 328.7s147.5 328.7 328.7 328.7 328.7-147.5 328.7-328.7-147.4-328.7-328.7-328.7z" fill="#22cdf1" p-id="5173"></path><path d="M645.1 793c-124.3 0-225.4-101.1-225.4-225.4s101.1-225.4 225.4-225.4 225.4 101.1 225.4 225.4S769.4 793 645.1 793z m0-413.6c-103.8 0-188.2 84.4-188.2 188.2s84.4 188.2 188.2 188.2 188.2-84.4 188.2-188.2-84.4-188.2-188.2-188.2zM456.4 261.8c-2.2 0-4.3-0.4-6.4-1.2-9.6-3.6-14.6-14.3-11-23.9l49.6-134.3c2.7-7.3 9.7-12.2 17.4-12.2h276.6c7.8 0 14.8 4.8 17.4 12.2l49.6 134.3c3.6 9.6-1.4 20.3-11 23.9-9.6 3.6-20.4-1.4-23.9-11l-45.1-122.1H519l-45.2 122.1c-2.7 7.5-9.8 12.2-17.4 12.2z" fill="#22cdf1" p-id="5174"></path><path d="M511.6 586.2c-10.3 0-18.6-8.3-18.6-18.6 0-83.9 68.3-152.2 152.2-152.2 10.3 0 18.6 8.3 18.6 18.6s-8.3 18.6-18.6 18.6c-63.4 0-114.9 51.6-114.9 114.9-0.1 10.4-8.5 18.7-18.7 18.7z" fill="#22cdf1" p-id="5175"></path></svg>